<svg width="30" height="45" viewBox="0 0 30 45" fill="none" xmlns="http://www.w3.org/2000/svg">
<path d="M29.5 13.9718C29.5 15.8074 28.9058 18.0863 27.903 20.6424C26.9036 23.1901 25.5147 25.9729 23.961 28.8049C22.4079 31.6357 20.6958 34.5054 19.0525 37.2276C18.7636 37.7062 18.4767 38.1803 18.1932 38.649C17.047 40.5436 15.9553 42.3481 15.0046 43.9887C13.8816 42.0114 12.5887 39.8624 11.2502 37.6376C11.1224 37.4253 10.9943 37.2123 10.8658 36.9987C9.2127 34.2499 7.50664 31.3971 5.96553 28.6C4.42387 25.8018 3.0535 23.0703 2.06947 20.5656C1.08248 18.0534 0.5 15.8081 0.5 13.9718C0.5 6.56437 6.95784 0.5 15 0.5C23.0422 0.5 29.5 6.56437 29.5 13.9718Z" fill="#C13F3F" stroke="black"/>
<ellipse cx="15" cy="14.1532" rx="8.96104" ry="8.34677" fill="white"/>
</svg>
